# xmcd CD database file
#
# Track frame offsets:
#	150
#	37592
#	57565
#	88385
#	108355
#	127480
#	150025
#	172611
#	190498
#	207888
#	230858
#
# Disc length: 3315 seconds
#
# Revision: 0
# Processed by: cddbd v1.5.2PL0 Copyright (c) Steve Scherf et al.
# Submitted via: CDex 1.78
#
DISCID=910cf10b
DTITLE=Allen Vizzutti - Ritzville
DYEAR=2011
DGENRE=Jazz
TTITLE0=Ritzville
TTITLE1=Silhouette
TTITLE2=Amara
TTITLE3=Ticklish
TTITLE4=Glide
TTITLE5=Touch
TTITLE6=One Of A Kind
TTITLE7=Papa Bear
TTITLE8=Laura's Blues
TTITLE9=Azure Cool
TTITLE10=I Don't Know
EXTD=YEAR: 2011
EXTT0=
EXTT1=
EXTT2=
EXTT3=
EXTT4=
EXTT5=
EXTT6=
EXTT7=
EXTT8=
EXTT9=
EXTT10=
PLAYORDER=
